<svg width="18" height="18" viewBox="0 0 18 18" fill="none" xmlns="http://www.w3.org/2000/svg">
<path fill-rule="evenodd" clip-rule="evenodd" d="M6.77866 6.53863C6.77866 8.99242 8.76786 10.9816 11.2217 10.9816C13.6755 10.9816 15.6647 8.99242 15.6647 6.53863C15.6647 4.08483 13.6755 2.09563 11.2217 2.09563C8.76786 2.09563 6.77866 4.08483 6.77866 6.53863ZM8.01821 11.4339C8.93843 12.0373 10.0391 12.3883 11.2217 12.3883C14.4523 12.3883 17.0713 9.76929 17.0713 6.53863C17.0713 3.30796 14.4523 0.688995 11.2217 0.688995C7.991 0.688995 5.37203 3.30796 5.37203 6.53863C5.37203 7.82427 5.78678 9.01303 6.48977 9.97843L0.580116 15.8881C0.168121 16.3001 0.168121 16.9681 0.580116 17.3801C0.992111 17.792 1.66009 17.792 2.07208 17.3801L8.01821 11.4339Z" fill="#010101"/>
</svg>
